<?xml version="1.0" encoding="UTF-8"?>
<!-- Created with Inkscape (http://www.inkscape.org/) -->
<svg width="68.253mm" height="142.3mm" version="1.1" viewBox="0 0 68.253 142.3" xmlns="http://www.w3.org/2000/svg">
 <g transform="translate(-42.744 -2.1663)">
  <path d="m68.285 99.395q-4.9366 0-7.7268-3.8634t-2.7902-10.517q0-6.8683 3.6488-13.307 3.8634-6.439 9.2292-10.946 5.3658-4.7219 10.732-9.2292 12.663-10.946 12.663-24.683 0-7.0829-5.1512-11.376-4.9366-4.2927-12.449-4.2927-15.024 0-15.024 11.161 0 3.6488 2.361 7.7268-4.2927 6.2244-10.302 6.2244-10.732 0-10.732-11.376 0-11.376 9.8731-16.956 9.8731-5.7951 24.468-5.7951t24.254 6.6536q9.6585 6.439 9.6585 20.605 0 8.1561-3.6488 15.454-3.4341 7.0829-8.5853 12.019-4.9366 4.9366-10.088 9.6585-12.234 10.946-12.234 19.961 0 4.2927 1.2878 9.4439-4.2927 3.4341-9.4439 3.4341zm-9.2292 32.624q0-12.449 11.376-12.449 11.376 0 11.376 12.449t-11.376 12.449q-11.376 0-11.376-12.449z" stroke-width="1.1179" style="white-space:pre" aria-label="?"/>
 </g>
</svg>
