<?xml version="1.0" encoding="UTF-8" standalone="no"?>
<!-- Created with Inkscape (http://www.inkscape.org/) -->

<svg
   width="99.099747mm"
   height="97.734016mm"
   viewBox="0 0 99.099747 97.734017"
   version="1.1"
   id="svg1"
   inkscape:version="1.3.2 (091e20e, 2023-11-25, custom)"
   sodipodi:docname="favicon.svg"
   xmlns:inkscape="http://www.inkscape.org/namespaces/inkscape"
   xmlns:sodipodi="http://sodipodi.sourceforge.net/DTD/sodipodi-0.dtd"
   xmlns="http://www.w3.org/2000/svg"
   xmlns:svg="http://www.w3.org/2000/svg">
  <sodipodi:namedview
     id="namedview1"
     pagecolor="#ffffff"
     bordercolor="#000000"
     borderopacity="0.25"
     inkscape:showpageshadow="2"
     inkscape:pageopacity="0.0"
     inkscape:pagecheckerboard="0"
     inkscape:deskcolor="#d1d1d1"
     inkscape:document-units="mm"
     inkscape:zoom="2.089941"
     inkscape:cx="175.3638"
     inkscape:cy="232.30321"
     inkscape:window-width="3440"
     inkscape:window-height="1369"
     inkscape:window-x="-8"
     inkscape:window-y="-8"
     inkscape:window-maximized="1"
     inkscape:current-layer="layer1" />
  <defs
     id="defs1">
    <rect
       x="163.64098"
       y="325.36801"
       width="196.17776"
       height="258.38049"
       id="rect1" />
  </defs>
  <g
     inkscape:label="Layer 1"
     inkscape:groupmode="layer"
     id="layer1"
     transform="translate(-50.386189,-82.289003)">
    <path
       style="font-weight:bold;font-size:121.019px;font-family:Calibri;-inkscape-font-specification:'Calibri Bold';stroke-width:0.630301"
       d="m 109.49327,160.24005 -42.761246,-3e-5 c -1.300012,0 -3.023411,-0.78115 -3.929478,-1.52964 -0.866673,-0.78788 -1.368938,-2.97856 -1.368938,-4.71191 V 84.566212 c 0,-0.393942 0.118183,-0.74849 0.354548,-1.063644 0.275759,-0.315153 0.709096,-0.571216 1.300009,-0.768187 0.590913,-0.196971 1.378797,-0.354547 2.363652,-0.47273 1.024249,-0.118183 2.284864,-0.177274 3.781844,-0.177274 1.536374,0 2.796989,0.05909 3.781844,0.177274 0.984855,0.118183 1.772739,0.275759 2.363652,0.47273 0.590913,0.196971 1.004552,0.453034 1.240917,0.768187 0.27576,0.315154 0.41364,0.669702 0.41364,1.063644 l -0.06893,63.432298 h 54.861626 c 1.65065,0 -18.40107,12.24154 -22.33314,12.24154 z m 48.43644,-24.2644 c 0,4.01821 -0.74849,7.54399 -2.24547,10.57734 -1.49698,3.03335 -3.52578,5.57428 -6.0864,7.62278 -2.56063,2.00911 -5.55459,3.52578 -8.98188,4.55003 -3.42729,1.02425 -7.09095,1.53638 -10.99098,1.53638 -2.48289,0 -23.35031,-0.009 -24.79304,-0.009 -1.30061,0 -2.63866,-12.19706 0.54699,-12.19706 5.52632,0 17.27621,0.0857 23.2712,0.0857 1.89092,0 4.61881,-0.62357 6.11579,-1.05691 1.49698,-0.47273 2.7576,-1.12273 3.78185,-1.95001 1.06364,-0.82728 1.87122,-1.85153 2.42274,-3.07275 0.55152,-1.22122 0.82728,-2.58032 0.82728,-4.0773 0,-1.73334 -0.47273,-3.21062 -1.41819,-4.43184 -0.94547,-1.26062 -2.18639,-2.36366 -3.72276,-3.30912 -1.49698,-0.98485 -3.21063,-1.89092 -5.14094,-2.7182 -1.93031,-0.86667 -3.91972,-1.77274 -5.96822,-2.7182 -2.0485,-0.94546 -4.03791,-2.0091 -5.96822,-3.19093 -1.93032,-1.22122 -3.66367,-2.65911 -5.20004,-4.31366 -1.49698,-1.69395 -2.7182,-3.68336 -3.66366,-5.96823 -0.94546,-2.28486 -1.41819,-5.02276 -1.41819,-8.21369 0,-3.663659 0.6697,-6.874286 2.0091,-9.631881 1.3788,-2.796989 3.21063,-5.10155 5.49549,-6.913683 2.32426,-1.851527 5.04246,-3.230324 8.1546,-4.136391 3.15154,-0.906067 6.48035,-1.3591 9.98644,-1.3591 1.81213,0 3.62427,0.13788 5.4364,0.413639 1.81213,0.275759 3.50608,0.650004 5.08185,1.122735 1.57577,0.47273 2.97426,1.004552 4.19548,1.595465 1.22122,0.590913 2.0288,1.08334 2.42274,1.477283 0.39395,0.393942 0.65001,0.728793 0.76819,1.004552 0.15758,0.275759 0.27576,0.650004 0.35455,1.122735 0.11818,0.433336 0.19697,1.004552 0.23636,1.713647 0.0394,0.669702 0.0591,1.516678 0.0591,2.540927 0,1.142432 -0.0394,2.10759 -0.11819,2.895474 -0.0394,0.787884 -0.13788,1.437888 -0.29545,1.950013 -0.11819,0.512125 -0.31516,0.88637 -0.59092,1.122735 -0.23636,0.236365 -0.57121,0.354548 -1.00455,0.354548 -0.43333,0 -1.12273,-0.27576 -2.06819,-0.827279 -0.94547,-0.551519 -2.1076,-1.142432 -3.48639,-1.772739 -1.3788,-0.669701 -2.97427,-1.260614 -4.7864,-1.772739 -1.81213,-0.551519 -3.80154,-0.827278 -5.96822,-0.827278 -1.69395,0 -3.17124,0.216668 -4.43185,0.650004 -1.26061,0.393942 -2.32426,0.965158 -3.19093,1.713648 -0.82728,0.709095 -1.45759,1.575768 -1.89092,2.600017 -0.39394,1.024249 -0.59091,2.107588 -0.59091,3.250018 0,1.69395 0.45303,3.17124 1.3591,4.43185 0.94546,1.22122 2.18638,2.32426 3.72275,3.30912 1.57577,0.94546 3.34851,1.85153 5.31822,2.7182 1.96971,0.82727 3.97881,1.71364 6.02731,2.6591 2.0485,0.94547 4.0576,2.02881 6.02731,3.25003 1.96971,1.18183 3.72276,2.61971 5.25913,4.31366 1.53637,1.65456 2.77729,3.62427 3.72275,5.90913 0.94546,2.24547 1.41819,4.90458 1.41819,7.97733 z"
       id="text2"
       aria-label="LS"
       sodipodi:nodetypes="sscsscscssscscsssscssscsccsscccsccsscccssssscccscccssccscccscccscccss"
       transform="scale(0.91831943,1.0889457)" />
  </g>
</svg>
